<svg width="20" height="20" viewBox="0 0 20 20" fill="none" xmlns="http://www.w3.org/2000/svg">
<path d="M2.06125 14.7092C0.913947 12.7752 0.512153 10.4888 0.931312 8.27945C1.35047 6.0701 2.56175 4.08976 4.3377 2.71028C6.11364 1.33081 8.33209 0.647109 10.5765 0.787555C12.8208 0.928002 14.9367 1.88294 16.5269 3.47305C18.117 5.06316 19.0719 7.17906 19.2124 9.42343C19.3528 11.6678 18.6691 13.8863 17.2897 15.6622C15.9102 17.4382 13.9299 18.6494 11.7205 19.0686C9.51118 19.4878 7.2248 19.086 5.29073 17.9387L5.29075 17.9386L2.1014 18.8499C1.96944 18.8876 1.82981 18.8893 1.69696 18.8549C1.56411 18.8204 1.44289 18.7511 1.34585 18.6541C1.24881 18.557 1.17949 18.4358 1.14506 18.303C1.11064 18.1701 1.11237 18.0305 1.15007 17.8985L2.06132 14.7092L2.06125 14.7092Z" stroke="#282A3A" stroke-width="1.5" stroke-linecap="round" stroke-linejoin="round"/>
</svg>
